
<svg width="200" height="200" viewBox="0 0 200 200" fill="none" xmlns="http://www.w3.org/2000/svg">
  <path d="M100 160C100 160 140 140 140 90C140 60 120 40 100 40C80 40 60 60 60 90C60 140 100 160 100 160Z" stroke="#A67C7C" stroke-width="2" stroke-linecap="round" stroke-linejoin="round"/>
  <path d="M100 160C100 160 70 145 70 110C70 90 85 75 100 75C115 75 130 90 130 110C130 145 100 160 100 160Z" stroke="#A67C7C" stroke-width="1.5" stroke-linecap="round" stroke-linejoin="round"/>
  <path d="M65 85C65 85 55 80 50 90C45 100 55 110 65 105" stroke="#A67C7C" stroke-width="1" stroke-linecap="round" stroke-linejoin="round" opacity="0.6"/>
  <path d="M135 85C135 85 145 80 150 90C155 100 145 110 135 105" stroke="#A67C7C" stroke-width="1" stroke-linecap="round" stroke-linejoin="round" opacity="0.6"/>
  <path d="M80 50C80 50 70 45 65 55" stroke="#A67C7C" stroke-width="1" stroke-linecap="round" stroke-linejoin="round" opacity="0.4"/>
  <path d="M120 50C120 50 130 45 135 55" stroke="#A67C7C" stroke-width="1" stroke-linecap="round" stroke-linejoin="round" opacity="0.4"/>
</svg>